STARTFONT 2.1
COMMENT converted Oberon font (using FontToBDF by R.Crelier 10.1.91)
FONT GreekSyntax24.Scn.Fnt
SIZE 24 75 75
FONTBOUNDINGBOX  21 27 0 -7
STARTPROPERTIES 3
FONT_ASCENT 20
FONT_DESCENT 7
DEFAULT_CHAR 0
ENDPROPERTIES
CHARS 95
STARTCHAR c0
ENCODING -1 0
SWIDTH 0 0
DWIDTH 0 0
BBX 0 0 0 0
BITMAP
ENDCHAR
STARTCHAR c32
ENCODING -1 32
SWIDTH 225 0
DWIDTH 7 0
BBX 0 0 0 0
BITMAP
ENDCHAR
STARTCHAR c33
ENCODING -1 33
SWIDTH 225 0
DWIDTH 7 0
BBX 2 18 3 0
BITMAP
40
40
40
40
40
40
40
40
40
40
40
40
00
00
00
00
C0
C0
ENDCHAR
STARTCHAR c34
ENCODING -1 34
SWIDTH 419 0
DWIDTH 13 0
BBX 13 18 0 0
BITMAP
C018
3060
0880
0880
0500
0500
0500
0200
0200
0200
0200
0200
0200
0200
0200
0200
0200
0200
ENDCHAR
STARTCHAR c35
ENCODING -1 35
SWIDTH 451 0
DWIDTH 14 0
BBX 12 18 1 0
BITMAP
1080
1080
1080
1080
1080
1080
FFF0
1080
1080
1080
1080
FFF0
1080
1080
1080
1080
1080
1080
ENDCHAR
STARTCHAR c36
ENCODING -1 36
SWIDTH 354 0
DWIDTH 11 0
BBX 8 13 2 0
BITMAP
3F
40
80
80
80
80
80
40
3C
02
02
02
3C
ENDCHAR
STARTCHAR c37
ENCODING -1 37
SWIDTH 580 0
DWIDTH 18 0
BBX 15 18 2 -1
BITMAP
3808
6410
8630
C220
8360
C640
4C80
3980
0100
0300
0278
0484
0C84
0986
1086
30C4
6078
0010
ENDCHAR
STARTCHAR c38
ENCODING -1 38
SWIDTH 451 0
DWIDTH 14 0
BBX 12 18 1 0
BITMAP
0F00
1080
2080
2080
2080
1100
1200
0C00
0C10
1410
2210
4110
8110
80A0
8060
8040
41A0
3E10
ENDCHAR
STARTCHAR c40
ENCODING -1 40
SWIDTH 290 0
DWIDTH 9 0
BBX 6 23 1 -4
BITMAP
04
08
10
20
20
40
40
40
80
80
80
80
80
80
80
40
40
40
20
20
10
08
04
ENDCHAR
STARTCHAR c41
ENCODING -1 41
SWIDTH 290 0
DWIDTH 9 0
BBX 6 23 2 -4
BITMAP
80
40
20
10
10
08
08
08
04
04
04
04
04
04
04
08
08
08
10
10
20
40
80
ENDCHAR
STARTCHAR c42
ENCODING -1 42
SWIDTH 451 0
DWIDTH 14 0
BBX 12 13 1 0
BITMAP
2040
2040
1080
0900
0900
0600
FFF0
0600
0900
0900
1080
2040
2040
ENDCHAR
STARTCHAR c43
ENCODING -1 43
SWIDTH 451 0
DWIDTH 14 0
BBX 13 13 0 0
BITMAP
0200
0200
0200
0200
0200
0200
FFF8
0200
0200
0200
0200
0200
0200
ENDCHAR
STARTCHAR c44
ENCODING -1 44
SWIDTH 161 0
DWIDTH 5 0
BBX 2 5 2 -3
BITMAP
C0
C0
80
80
80
ENDCHAR
STARTCHAR c45
ENCODING -1 45
SWIDTH 451 0
DWIDTH 14 0
BBX 12 1 1 6
BITMAP
FFF0
ENDCHAR
STARTCHAR c46
ENCODING -1 46
SWIDTH 161 0
DWIDTH 5 0
BBX 2 2 2 0
BITMAP
C0
C0
ENDCHAR
STARTCHAR c47
ENCODING -1 47
SWIDTH 387 0
DWIDTH 12 0
BBX 8 20 2 -1
BITMAP
01
01
01
02
02
04
04
04
08
08
10
10
10
20
20
40
40
40
80
80
ENDCHAR
STARTCHAR c48
ENCODING -1 48
SWIDTH 419 0
DWIDTH 13 0
BBX 11 18 1 0
BITMAP
0E00
3180
2080
4040
4040
8020
8020
8020
8020
8020
8020
8020
8020
4040
4040
2080
3180
0E00
ENDCHAR
STARTCHAR c49
ENCODING -1 49
SWIDTH 419 0
DWIDTH 13 0
BBX 6 18 2 0
BITMAP
04
0C
14
24
44
84
04
04
04
04
04
04
04
04
04
04
04
04
ENDCHAR
STARTCHAR c50
ENCODING -1 50
SWIDTH 419 0
DWIDTH 13 0
BBX 10 17 1 0
BITMAP
7C00
0300
0100
0080
0080
0080
0080
0080
0100
0100
0200
0400
0800
1000
2000
4000
FFC0
ENDCHAR
STARTCHAR c51
ENCODING -1 51
SWIDTH 419 0
DWIDTH 13 0
BBX 9 18 2 0
BITMAP
FC00
0300
0100
0080
0080
0080
0100
0600
F800
0600
0100
0080
0080
0080
0080
0100
0300
FC00
ENDCHAR
STARTCHAR c52
ENCODING -1 52
SWIDTH 419 0
DWIDTH 13 0
BBX 12 18 0 0
BITMAP
0080
0180
0280
0280
0480
0880
0880
1080
2080
2080
4080
FFF0
0080
0080
0080
0080
0080
0080
ENDCHAR
STARTCHAR c53
ENCODING -1 53
SWIDTH 419 0
DWIDTH 13 0
BBX 9 18 2 0
BITMAP
3F80
2000
2000
4000
4000
8000
FC00
8300
0100
0080
0080
0080
0080
0080
0100
0300
0C00
F000
ENDCHAR
STARTCHAR c54
ENCODING -1 54
SWIDTH 419 0
DWIDTH 13 0
BBX 11 18 1 0
BITMAP
01E0
0600
0800
3000
2000
4000
4000
8000
8F00
B0C0
A040
C020
8020
8020
8020
4040
60C0
1F00
ENDCHAR
STARTCHAR c55
ENCODING -1 55
SWIDTH 419 0
DWIDTH 13 0
BBX 11 18 1 0
BITMAP
FFE0
0040
0040
0080
0080
0100
0100
0200
0200
0400
0400
0800
0800
1000
1000
2000
2000
2000
ENDCHAR
STARTCHAR c56
ENCODING -1 56
SWIDTH 419 0
DWIDTH 13 0
BBX 11 18 1 0
BITMAP
1F00
60C0
4040
8020
8020
8020
4040
3180
0E00
3180
4040
8020
8020
8020
8020
4040
60C0
1F00
ENDCHAR
STARTCHAR c57
ENCODING -1 57
SWIDTH 419 0
DWIDTH 13 0
BBX 11 18 1 0
BITMAP
1F00
60C0
4040
8020
8020
8020
8060
40A0
61A0
1E20
0020
0040
0040
0080
0180
0200
0C00
F000
ENDCHAR
STARTCHAR c58
ENCODING -1 58
SWIDTH 193 0
DWIDTH 6 0
BBX 2 13 3 0
BITMAP
C0
C0
00
00
00
00
00
00
00
00
00
C0
C0
ENDCHAR
STARTCHAR c59
ENCODING -1 59
SWIDTH 193 0
DWIDTH 6 0
BBX 2 16 3 -3
BITMAP
C0
C0
00
00
00
00
00
00
00
00
00
C0
C0
80
80
80
ENDCHAR
STARTCHAR c60
ENCODING -1 60
SWIDTH 451 0
DWIDTH 14 0
BBX 12 13 1 0
BITMAP
0030
00C0
0300
0C00
3000
C000
8000
C000
3000
0C00
0300
00C0
0030
ENDCHAR
STARTCHAR c61
ENCODING -1 61
SWIDTH 451 0
DWIDTH 14 0
BBX 12 5 1 4
BITMAP
FFF0
0000
0000
0000
FFF0
ENDCHAR
STARTCHAR c62
ENCODING -1 62
SWIDTH 451 0
DWIDTH 14 0
BBX 12 13 1 0
BITMAP
C000
3000
0C00
0300
00C0
0030
0010
0030
00C0
0300
0C00
3000
C000
ENDCHAR
STARTCHAR c63
ENCODING -1 63
SWIDTH 354 0
DWIDTH 11 0
BBX 8 18 2 0
BITMAP
3C
C2
01
01
01
01
02
02
04
08
10
10
10
00
00
00
30
30
ENDCHAR
STARTCHAR c64
ENCODING -1 64
SWIDTH 451 0
DWIDTH 14 0
BBX 12 12 1 1
BITMAP
3810
4410
8220
81C0
8000
0000
0000
FFF0
0000
0000
0000
FFF0
ENDCHAR
STARTCHAR c65
ENCODING -1 65
SWIDTH 483 0
DWIDTH 15 0
BBX 13 18 1 0
BITMAP
0200
0200
0500
0500
0880
0880
0880
1040
1040
2020
3FE0
2020
4010
4010
4010
8008
8008
8008
ENDCHAR
STARTCHAR c66
ENCODING -1 66
SWIDTH 451 0
DWIDTH 14 0
BBX 9 18 3 0
BITMAP
FE00
8100
8080
8080
8080
8080
8100
8200
FC00
8200
8100
8080
8080
8080
8080
8080
8100
FE00
ENDCHAR
STARTCHAR c67
ENCODING -1 67
SWIDTH 451 0
DWIDTH 14 0
BBX 12 18 1 0
BITMAP
8010
8010
4020
4020
2040
1080
1080
0900
0600
0600
0900
1080
1080
2040
4020
4020
8010
8010
ENDCHAR
STARTCHAR c68
ENCODING -1 68
SWIDTH 483 0
DWIDTH 15 0
BBX 15 18 0 0
BITMAP
0100
0100
0280
0280
0440
0440
0440
0820
0820
0820
1010
1010
2008
2008
2008
4004
4004
FFFE
ENDCHAR
STARTCHAR c69
ENCODING -1 69
SWIDTH 419 0
DWIDTH 13 0
BBX 8 18 3 0
BITMAP
FF
80
80
80
80
80
80
80
FF
80
80
80
80
80
80
80
80
FF
ENDCHAR
STARTCHAR c70
ENCODING -1 70
SWIDTH 548 0
DWIDTH 17 0
BBX 15 22 1 -2
BITMAP
0100
0100
0100
07C0
1930
2108
4104
4104
8102
8102
8102
8102
8102
8102
4104
4104
2108
1930
07C0
0100
0100
0100
ENDCHAR
STARTCHAR c71
ENCODING -1 71
SWIDTH 387 0
DWIDTH 12 0
BBX 9 18 3 0
BITMAP
FF80
8000
8000
8000
8000
8000
8000
8000
8000
8000
8000
8000
8000
8000
8000
8000
8000
8000
ENDCHAR
STARTCHAR c72
ENCODING -1 72
SWIDTH 548 0
DWIDTH 17 0
BBX 11 18 3 0
BITMAP
8020
8020
8020
8020
8020
8020
8020
8020
FFE0
8020
8020
8020
8020
8020
8020
8020
8020
8020
ENDCHAR
STARTCHAR c73
ENCODING -1 73
SWIDTH 225 0
DWIDTH 7 0
BBX 1 17 3 0
BITMAP
80
80
80
80
80
80
80
80
80
80
80
80
80
80
80
80
80
ENDCHAR
STARTCHAR c74
ENCODING -1 74
SWIDTH 516 0
DWIDTH 16 0
BBX 14 18 2 0
BITMAP
0F00
30C0
2040
4020
4020
4020
2020
1FFC
0020
8020
8020
8020
8020
8020
8020
4040
60C0
1F00
ENDCHAR
STARTCHAR c75
ENCODING -1 75
SWIDTH 451 0
DWIDTH 14 0
BBX 11 18 3 0
BITMAP
8020
8040
8080
8100
8200
8400
8800
9000
A000
A000
9000
8800
8400
8200
8100
8080
8040
8020
ENDCHAR
STARTCHAR c76
ENCODING -1 76
SWIDTH 483 0
DWIDTH 15 0
BBX 13 18 1 0
BITMAP
0200
0200
0500
0500
0880
0880
0880
1040
1040
2020
2020
2020
4010
4010
4010
8008
8008
8008
ENDCHAR
STARTCHAR c77
ENCODING -1 77
SWIDTH 741 0
DWIDTH 23 0
BBX 19 18 2 0
BITMAP
080200
080200
080200
140500
140500
140500
220880
220880
220880
211080
411040
411040
40A040
40A040
80A020
804020
804020
804020
ENDCHAR
STARTCHAR c78
ENCODING -1 78
SWIDTH 580 0
DWIDTH 18 0
BBX 12 18 3 0
BITMAP
8010
8010
C010
A010
A010
9010
8810
8810
8410
8410
8210
8110
8110
8090
8050
8050
8030
8010
ENDCHAR
STARTCHAR c79
ENCODING -1 79
SWIDTH 612 0
DWIDTH 19 0
BBX 15 18 2 0
BITMAP
07C0
1830
2008
4004
4004
8002
8002
8002
8002
8002
8002
8002
8002
4004
4004
2008
1830
07C0
ENDCHAR
STARTCHAR c80
ENCODING -1 80
SWIDTH 548 0
DWIDTH 17 0
BBX 11 18 3 0
BITMAP
FFE0
8020
8020
8020
8020
8020
8020
8020
8020
8020
8020
8020
8020
8020
8020
8020
8020
8020
ENDCHAR
STARTCHAR c81
ENCODING -1 81
SWIDTH 612 0
DWIDTH 19 0
BBX 15 18 2 0
BITMAP
07C0
1830
2008
4004
4004
8002
8002
8002
9FF2
8002
8002
8002
8002
4004
4004
2008
1830
07C0
ENDCHAR
STARTCHAR c82
ENCODING -1 82
SWIDTH 387 0
DWIDTH 12 0
BBX 9 18 3 0
BITMAP
FE00
8100
8080
8080
8080
8080
8080
8100
FE00
8000
8000
8000
8000
8000
8000
8000
8000
8000
ENDCHAR
STARTCHAR c83
ENCODING -1 83
SWIDTH 387 0
DWIDTH 12 0
BBX 10 18 1 0
BITMAP
FFC0
4000
2000
1000
0800
0400
0200
0100
0080
0080
0100
0200
0400
0800
1000
2000
4000
FFC0
ENDCHAR
STARTCHAR c84
ENCODING -1 84
SWIDTH 419 0
DWIDTH 13 0
BBX 11 18 1 0
BITMAP
FFE0
0400
0400
0400
0400
0400
0400
0400
0400
0400
0400
0400
0400
0400
0400
0400
0400
0400
ENDCHAR
STARTCHAR c85
ENCODING -1 85
SWIDTH 419 0
DWIDTH 13 0
BBX 11 18 1 0
BITMAP
8020
8020
4040
4040
2080
1100
1100
0A00
0A00
0400
0400
0400
0400
0400
0400
0400
0400
0400
ENDCHAR
STARTCHAR c86
ENCODING -1 86
SWIDTH 387 0
DWIDTH 12 0
BBX 11 18 1 -5
BITMAP
1FE0
2000
4000
8000
8000
8000
8000
8000
8000
4000
2000
1F00
0080
0040
0040
0040
0080
1F00
ENDCHAR
STARTCHAR c87
ENCODING -1 87
SWIDTH 612 0
DWIDTH 19 0
BBX 15 18 2 0
BITMAP
07C0
1830
2008
4004
4004
8002
8002
8002
8002
8002
8002
8002
4004
4004
2008
1010
0C60
FC7E
ENDCHAR
STARTCHAR c88
ENCODING -1 88
SWIDTH 451 0
DWIDTH 14 0
BBX 12 18 1 0
BITMAP
FFF0
0000
0000
0000
0000
0000
0000
0000
3FC0
0000
0000
0000
0000
0000
0000
0000
0000
FFF0
ENDCHAR
STARTCHAR c89
ENCODING -1 89
SWIDTH 548 0
DWIDTH 17 0
BBX 15 18 1 0
BITMAP
8102
8102
8102
8102
8102
8102
8102
8102
4104
4104
3118
0FE0
0100
0100
0100
0100
0100
0100
ENDCHAR
STARTCHAR c90
ENCODING -1 90
SWIDTH 387 0
DWIDTH 12 0
BBX 12 18 0 0
BITMAP
7FF0
0020
0020
0040
0040
0080
0100
0100
0200
0400
0400
0800
1000
1000
2000
4000
4000
FFF0
ENDCHAR
STARTCHAR c91
ENCODING -1 91
SWIDTH 290 0
DWIDTH 9 0
BBX 5 23 2 -4
BITMAP
F8
80
80
80
80
80
80
80
80
80
80
80
80
80
80
80
80
80
80
80
80
80
F8
ENDCHAR
STARTCHAR c92
ENCODING -1 92
SWIDTH 387 0
DWIDTH 12 0
BBX 10 9 1 3
BITMAP
0C00
0C00
0000
0000
0000
0000
0000
C0C0
C0C0
ENDCHAR
STARTCHAR c93
ENCODING -1 93
SWIDTH 290 0
DWIDTH 9 0
BBX 5 23 2 -4
BITMAP
F8
08
08
08
08
08
08
08
08
08
08
08
08
08
08
08
08
08
08
08
08
08
F8
ENDCHAR
STARTCHAR c94
ENCODING -1 94
SWIDTH 419 0
DWIDTH 13 0
BBX 11 13 1 0
BITMAP
0400
0400
0400
0400
0400
0400
0400
0400
0400
0400
0400
0400
FFE0
ENDCHAR
STARTCHAR c95
ENCODING -1 95
SWIDTH 419 0
DWIDTH 13 0
BBX 13 1 0 -7
BITMAP
FFF8
ENDCHAR
STARTCHAR c96
ENCODING -1 96
SWIDTH 419 0
DWIDTH 13 0
BBX 13 1 0 19
BITMAP
FFF8
ENDCHAR
STARTCHAR c97
ENCODING -1 97
SWIDTH 483 0
DWIDTH 15 0
BBX 14 13 1 0
BITMAP
1F08
2088
4050
4050
8020
8020
8020
8020
8050
8050
4090
6110
1E0C
ENDCHAR
STARTCHAR c98
ENCODING -1 98
SWIDTH 451 0
DWIDTH 14 0
BBX 9 24 3 -4
BITMAP
1E00
2100
4080
8080
8080
8080
8100
8200
FC00
8200
8100
8080
8080
8080
8080
8080
8080
8100
8200
9C00
8000
8000
8000
8000
ENDCHAR
STARTCHAR c99
ENCODING -1 99
SWIDTH 322 0
DWIDTH 10 0
BBX 10 18 0 -5
BITMAP
C040
2040
1080
1080
1100
0900
0A00
0A00
0C00
0C00
1400
1400
2400
2200
4200
4200
8100
80C0
ENDCHAR
STARTCHAR c100
ENCODING -1 100
SWIDTH 419 0
DWIDTH 13 0
BBX 11 20 1 0
BITMAP
FFC0
4000
2000
1000
0800
0400
0200
1F00
2080
4040
4040
8020
8020
8020
8020
8020
4040
4040
2080
1F00
ENDCHAR
STARTCHAR c101
ENCODING -1 101
SWIDTH 290 0
DWIDTH 9 0
BBX 6 13 2 0
BITMAP
3C
40
80
80
80
40
3C
40
80
80
80
40
3C
ENDCHAR
STARTCHAR c102
ENCODING -1 102
SWIDTH 419 0
DWIDTH 13 0
BBX 11 21 1 -4
BITMAP
0400
0400
0400
0400
1F00
2480
4440
8420
8420
8420
8420
8420
8420
8420
4440
2480
1F00
0400
0400
0400
0400
ENDCHAR
STARTCHAR c103
ENCODING -1 103
SWIDTH 322 0
DWIDTH 10 0
BBX 10 19 0 -6
BITMAP
C040
2040
1080
1080
0900
0A00
0A00
0400
0400
0A00
0A00
1200
1200
1100
2100
2100
2100
2200
1C00
ENDCHAR
STARTCHAR c104
ENCODING -1 104
SWIDTH 419 0
DWIDTH 13 0
BBX 9 18 2 -5
BITMAP
9E00
A100
C080
8080
8080
8080
8080
8080
8080
8080
8080
8080
8080
0080
0080
0080
0080
0080
ENDCHAR
STARTCHAR c105
ENCODING -1 105
SWIDTH 258 0
DWIDTH 8 0
BBX 6 13 2 0
BITMAP
80
80
80
80
80
80
80
80
80
80
80
8C
70
ENDCHAR
STARTCHAR c106
ENCODING -1 106
SWIDTH 483 0
DWIDTH 15 0
BBX 13 17 1 -5
BITMAP
19E0
2210
4208
8208
8208
8208
8208
8208
8208
4210
2220
1FC0
0200
0200
0200
0200
0200
ENDCHAR
STARTCHAR c107
ENCODING -1 107
SWIDTH 387 0
DWIDTH 12 0
BBX 9 13 2 0
BITMAP
8180
8200
8400
8800
9000
A000
A000
9000
8800
8400
8200
8100
8080
ENDCHAR
STARTCHAR c108
ENCODING -1 108
SWIDTH 354 0
DWIDTH 11 0
BBX 11 20 0 0
BITMAP
6000
1000
1000
1000
0800
0800
0800
0C00
0C00
0C00
1200
1200
2200
2100
2100
4100
4080
8080
8080
8060
ENDCHAR
STARTCHAR c109
ENCODING -1 109
SWIDTH 419 0
DWIDTH 13 0
BBX 9 18 2 -5
BITMAP
8080
8080
8080
8080
8080
8080
8080
8080
8080
8080
8180
C280
BC80
8000
8000
8000
8000
8000
ENDCHAR
STARTCHAR c110
ENCODING -1 110
SWIDTH 354 0
DWIDTH 11 0
BBX 9 13 1 0
BITMAP
8300
8080
8080
4080
4080
2100
2100
2200
1200
1400
1400
0800
0800
ENDCHAR
STARTCHAR c111
ENCODING -1 111
SWIDTH 419 0
DWIDTH 13 0
BBX 11 13 1 0
BITMAP
1F00
2080
4040
8020
8020
8020
8020
8020
8020
8020
4040
2080
1F00
ENDCHAR
STARTCHAR c112
ENCODING -1 112
SWIDTH 483 0
DWIDTH 15 0
BBX 15 13 0 0
BITMAP
7FFE
8840
8840
0840
0840
0840
0840
0840
0840
0840
0840
0846
0838
ENDCHAR
STARTCHAR c113
ENCODING -1 113
SWIDTH 419 0
DWIDTH 13 0
BBX 11 18 1 0
BITMAP
0E00
3180
2080
4040
4040
8020
8020
8020
FFE0
8020
8020
8020
8020
4040
4040
2080
3180
0E00
ENDCHAR
STARTCHAR c114
ENCODING -1 114
SWIDTH 419 0
DWIDTH 13 0
BBX 10 18 2 -5
BITMAP
1E00
2100
4080
8040
8040
8040
8040
8040
8040
8040
C080
A100
9E00
8000
8000
8000
8000
8000
ENDCHAR
STARTCHAR c115
ENCODING -1 115
SWIDTH 419 0
DWIDTH 13 0
BBX 12 13 1 0
BITMAP
1FF0
2080
4040
8020
8020
8020
8020
8020
8020
8020
4040
2080
1F00
ENDCHAR
STARTCHAR c116
ENCODING -1 116
SWIDTH 322 0
DWIDTH 10 0
BBX 9 13 0 0
BITMAP
7F80
8800
8800
0800
0800
0800
0800
0800
0800
0800
0800
0980
0600
ENDCHAR
STARTCHAR c117
ENCODING -1 117
SWIDTH 419 0
DWIDTH 13 0
BBX 10 13 2 0
BITMAP
8E00
8100
8080
8040
8040
8040
8040
8040
8040
8040
4080
2100
1E00
ENDCHAR
STARTCHAR c118
ENCODING -1 118
SWIDTH 677 0
DWIDTH 21 0
BBX 19 13 1 0
BITMAP
FFFFE0
204080
404040
804020
804020
804020
804020
804020
804020
804020
40A040
211080
1E0F00
ENDCHAR
STARTCHAR c119
ENCODING -1 119
SWIDTH 677 0
DWIDTH 21 0
BBX 19 13 1 0
BITMAP
1C4700
204080
404040
804020
804020
804020
804020
804020
804020
804020
40A040
211080
1E0F00
ENDCHAR
STARTCHAR c120
ENCODING -1 120
SWIDTH 354 0
DWIDTH 11 0
BBX 9 25 1 -5
BITMAP
FF80
1000
2000
4000
4000
4000
2000
1F80
2000
4000
8000
8000
8000
8000
8000
4000
4000
3000
0C00
0300
0080
0080
0080
0100
1E00
ENDCHAR
STARTCHAR c121
ENCODING -1 121
SWIDTH 612 0
DWIDTH 19 0
BBX 15 18 2 -5
BITMAP
8102
8102
8102
8102
8102
8102
8102
8102
8102
4104
4104
3118
0FE0
0100
0100
0100
0100
0100
ENDCHAR
STARTCHAR c122
ENCODING -1 122
SWIDTH 419 0
DWIDTH 13 0
BBX 11 25 2 -5
BITMAP
FFE0
0800
1000
2000
4000
4000
8000
8000
8000
8000
8000
8000
8000
4000
4000
2000
3000
0C00
0300
0080
0040
0040
0040
0080
1F00
ENDCHAR
STARTCHAR c123
ENCODING -1 123
SWIDTH 290 0
DWIDTH 9 0
BBX 7 23 0 -4
BITMAP
06
08
10
10
10
10
10
10
10
10
20
C0
20
10
10
10
10
10
10
10
10
08
06
ENDCHAR
STARTCHAR c124
ENCODING -1 124
SWIDTH 225 0
DWIDTH 7 0
BBX 1 23 3 -4
BITMAP
80
80
80
80
80
80
80
80
80
80
80
80
80
80
80
80
80
80
80
80
80
80
80
ENDCHAR
STARTCHAR c125
ENCODING -1 125
SWIDTH 290 0
DWIDTH 9 0
BBX 7 23 2 -4
BITMAP
C0
20
10
10
10
10
10
10
10
10
08
06
08
10
10
10
10
10
10
10
10
20
C0
ENDCHAR
STARTCHAR c126
ENCODING -1 126
SWIDTH 483 0
DWIDTH 15 0
BBX 13 5 1 4
BITMAP
3808
4408
8208
8110
80E0
ENDCHAR
ENDFONT
